<svg xmlns="http://www.w3.org/2000/svg" version="1.1" xmlns:xlink="http://www.w3.org/1999/xlink" viewBox="0 0 200 200" width="200" height="200"><metadata><rdf:RDF xmlns:rdf="http://www.w3.org/1999/02/22-rdf-syntax-ns#" xmlns:dc="http://purl.org/dc/elements/1.1/"><rdf:Description><dc:creator>RealFaviconGenerator</dc:creator><dc:source>https://realfavicongenerator.net</dc:source></rdf:Description></rdf:RDF></metadata><rect width="200" height="200" fill="url('#gradient')"></rect><defs><linearGradient id="gradient" gradientTransform="rotate(45 0.5 0.5)"><stop offset="0%" stop-color="#e8d4de"></stop><stop offset="100%" stop-color="#bdcabc"></stop></linearGradient></defs><g><g fill="#d13a80" transform="matrix(7.005701254275941,0,0,7.005701254275941,2.479737496974124,149.81479166850804)" stroke="#d21d81" stroke-width="0.2"><path d="M12.96-14.22L12.96 0L9.55 0L9.55-5.94L4.50-5.94L4.50 0L1.07 0L1.07-14.22L4.50-14.22L4.50-8.57L9.55-8.57L9.55-14.22L12.96-14.22ZM26.77-7.60L26.77-1.76Q25.98-0.88 24.45-0.34Q22.93 0.20 21.11 0.20L21.11 0.20Q18.32 0.20 16.65-1.51Q14.98-3.22 14.86-6.27L14.86-6.27L14.85-7.50Q14.85-9.60 15.60-11.17Q16.34-12.73 17.72-13.58Q19.10-14.42 20.92-14.42L20.92-14.42Q23.57-14.42 25.04-13.21Q26.51-11.99 26.76-9.58L26.76-9.58L23.46-9.58Q23.28-10.77 22.70-11.28Q22.11-11.79 21.04-11.79L21.04-11.79Q19.75-11.79 19.04-10.69Q18.34-9.60 18.33-7.57L18.33-7.57L18.33-6.71Q18.33-4.58 19.06-3.51Q19.79-2.44 21.35-2.44L21.35-2.44Q22.69-2.44 23.34-3.04L23.34-3.04L23.34-5.24L20.96-5.24L20.96-7.60L26.77-7.60Z"></path></g></g><style>@media (prefers-color-scheme: light) { :root { filter: contrast(1) brightness(1); } }
</style></svg>